<svg xmlns="http://www.w3.org/2000/svg" viewBox="0 0 1650.6 495.2" class="svg_logo" fill="#50e3c2"><title>40ftSlinky_logo</title>
<path d="M1113.5,336.5c-10.8-5.3-22.4-8.8-34.3-10.4c-11.8-1.5-17.8-3.9-17.8-7.1c0-3.6,3.2-5.5,9.6-5.5
	c13.4-0.1,26.4,4.1,37.2,12.1l20.4-27.2c-14.4-12.1-32.3-18.1-53.7-18.1c-16.3,0-29.2,4.2-38.5,12.5s-14,18.4-14,30.1
	c0,9,2.4,16.4,7.3,22.2c4.6,5.7,10.8,10,17.7,12.3c6.7,2.3,13.7,4.1,20.7,5.3c6.9,1.3,12.8,2.4,17.6,3.5c4.8,1.1,7.2,2.6,7.3,4.8
	c0.1,4.4-4.6,6.5-14,6.5c-15.8,0-29.4-5.2-40.8-15.8l-19.9,28.2c14.9,13.9,34.5,20.8,58.7,20.8c17,0.1,30.3-3.8,40-11.5
	s14.5-18.4,14.5-32.2c0.1-6.7-1.7-13.2-5.3-18.8C1123.3,343.2,1118.8,339.2,1113.5,336.5z M1181.7,282.2h-38.2v126.3h86.1v-33.3
	h-47.9V282.2z M1242.2,282.2h38.2v126.3h-38.2V282.2z M1377.1,342l-43.9-59.8h-39.4v126.3h38.2v-64l46.6,64h36.7V282.2h-38.2V342z
	 M1607.6,282.2l-23.1,42.6l-23.4-42.6h-14.2h-28.8h-18l-33.2,47.4v-47.4h-38.2v126.3h38.2v-35l7-9.4l28.4,44.5h46.6l-49.8-67.6
	l31.5-38.6l34.9,56v50.2h38.2v-50.2l47-76.1H1607.6z M855.2,277c-0.1-2.7,1.2-5.3,3.4-6.8c2.4-1.7,5.6-2.6,9.7-2.6
	c3.9-0.1,7.7,1.6,10.3,4.6l16.9-26.4c-8.5-9.3-21.6-13.9-39.3-13.9c-14,0-25.5,4.2-34.5,12.5c-9,8.3-13.5,19.1-13.5,32.3v5.7h-12.8
	c1-11.3,1.5-23.1,1.5-35.3c0.2-69.2-18-127.7-54.8-175.5S653.1,0,585.2,0C517.4,0,465,23.7,428.1,71.2
	C391.4,119,373,177.6,373,247.1c-0.1,12.3,0.4,24.3,1.4,35.8h-32.5V7H174.8L0,297.9v111.3h197v77.2h145v-77.2h55.8v-33.8
	c15.4,33.7,39.3,62.8,69.4,84.4c32.7,23.9,72,35.7,117.9,35.4c45.9,0,85.2-11.9,117.9-35.8c45-32.5,73.8-78.1,86.5-136.7h18.8v85.4
	h46.9v-85.5h25.5v-40.3h-25.7V277z M971.1,369.8c-3.9-0.1-6.8-1.2-8.7-3.5c-1.9-2.3-2.9-5.3-2.9-8.3v-35.4H985v-40.3h-25.5v-34.7
	h-46.9v34.7h-20.8v40.3h20.8v48.8c0,26.5,14.6,39.8,43.9,39.8c14.5,0,24.9-2.8,31.1-8.4l-8.4-35.4
	C977.7,369.1,975,369.8,971.1,369.8z"/>
</svg>
